<svg fill="#5964E0" xmlns="http://www.w3.org/2000/svg" data-name="Layer 1" viewBox="0 0 512 512"><path d="M499.22,437.51,433.68,372a23.19,23.19,0,0,0-26.63-4.41l-22.18-22.18A214.71,214.71,0,0,0,62.78,62.78a214.72,214.72,0,0,0,282.6,322.09l22.18,22.18A23.19,23.19,0,0,0,372,433.68l65.54,65.54a43.64,43.64,0,0,0,61.71-61.71ZM341.29,369l-.2.18A199.71,199.71,0,0,1,73.39,73.39,199.71,199.71,0,0,1,369.15,341.06l-.22.26q-6.18,7.5-13.14,14.47T341.29,369ZM357,375.26c3.21-2.86,6.36-5.8,9.42-8.86s6-6.21,8.86-9.42l20.29,20.3-18.27,18.27ZM488.61,488.61a28.65,28.65,0,0,1-40.49,0l-65.54-65.54a8.22,8.22,0,0,1,0-11.61l28.88-28.88a8.22,8.22,0,0,1,11.61,0l65.54,65.54A28.65,28.65,0,0,1,488.61,488.61ZM296.08,161h-31V149.47A21.13,21.13,0,0,0,244,128.36H185.2a21.13,21.13,0,0,0-21.11,21.11V161h-31a19.82,19.82,0,0,0-19.81,19.81V281a19.83,19.83,0,0,0,19.81,19.82h163A19.84,19.84,0,0,0,315.9,281V180.81A19.83,19.83,0,0,0,296.08,161Zm-117-11.53a6.12,6.12,0,0,1,6.11-6.11H244a6.12,6.12,0,0,1,6.11,6.11V161h-71ZM300.9,281a4.82,4.82,0,0,1-4.82,4.82h-163a4.82,4.82,0,0,1-4.81-4.82V217.4l63.8,27.77v4.88a14.52,14.52,0,0,0,14.5,14.5h16a14.52,14.52,0,0,0,14.5-14.5v-4.88L300.9,217.4Zm-93.81-31.45v-15h15v15ZM300.9,201l-64.67,28.14a14.5,14.5,0,0,0-13.64-9.63h-16A14.52,14.52,0,0,0,193,229.18L128.29,201V180.81A4.82,4.82,0,0,1,133.1,176h163a4.82,4.82,0,0,1,4.82,4.81ZM337.79,91.39c-67.93-67.93-178.47-67.93-246.4,0a174.23,174.23,0,0,0,246.4,246.4,174.23,174.23,0,0,0,0-246.4Zm-10.6,235.8a159.25,159.25,0,1,1,46.63-112.6A158.76,158.76,0,0,1,327.19,327.19Z"/></svg>