<svg xmlns="http://www.w3.org/2000/svg" width="512" height="512" fill-rule="evenodd" stroke-linejoin="round" stroke-miterlimit="2" clip-rule="evenodd"><path d="M97.993,84C92.474,84 87.993,88.481 87.993,94C87.993,95.707 88.759,98.042 89.893,100.516C91.499,104.024 93.822,107.848 95.405,110.489C95.935,111.422 96.926,112 98,112C99.076,112 100.067,111.421 100.596,110.485C102.179,107.848 104.496,104.024 106.099,100.515C107.23,98.041 107.993,95.707 107.993,94C107.993,88.481 103.513,84 97.993,84ZM97.993,86C102.409,86 105.993,89.585 105.993,94C105.993,95.493 105.27,97.519 104.28,99.684C102.706,103.128 100.426,106.881 98.873,109.47C98.868,109.479 98.863,109.488 98.858,109.497C98.684,109.807 98.356,110 98,110C97.644,110 97.316,109.808 97.142,109.497C97.137,109.488 97.132,109.479 97.127,109.471C95.574,106.881 93.289,103.128 91.711,99.683C90.719,97.519 89.993,95.493 89.993,94C89.993,89.585 93.578,86 97.993,86ZM98,90C95.792,90 94,91.792 94,94C94,96.208 95.792,98 98,98C100.208,98 102,96.208 102,94C102,91.792 100.208,90 98,90ZM98,92C99.104,92 100,92.896 100,94C100,95.104 99.104,96 98,96C96.896,96 96,95.104 96,94C96,92.896 96.896,92 98,92Z" transform="matrix(16 0 0 16 -1312 -1312)"/></svg>