<?xml version="1.0" encoding="UTF-8"?><!DOCTYPE svg PUBLIC "-//W3C//DTD SVG 1.1//EN" "http://www.w3.org/Graphics/SVG/1.1/DTD/svg11.dtd"><svg xmlns="http://www.w3.org/2000/svg" xmlns:xlink="http://www.w3.org/1999/xlink" height="100px" id="Layer_1" version="1.1" viewBox="0 0 100 100" width="100px" xml:space="preserve"><defs><path id="SVGID_1_" d="M0 0h100v100H0z"/></defs><path d="M79.535 27.4c-.32-1.201-.971-2.48-1.452-3.6C72.324 9.96 59.741 5 49.581 5 35.98 5 21 14.12 19 32.919v3.841c0 .16.055 1.6.134 2.32 1.121 8.959 8.19 18.48 13.47 27.439 5.68 9.599 11.574 19.041 17.415 28.479 3.6-6.159 7.188-12.399 10.707-18.399.959-1.761 2.071-3.521 3.031-5.201.64-1.119 1.862-2.238 2.421-3.279C71.857 57.722 81 47.24 81 36.92v-4.24c0-1.119-1.387-5.039-1.465-5.28M49.83 46.68c-3.998 0-8.374-1.999-10.534-7.52-.322-.879-.296-2.64-.296-2.801v-2.48c0-7.038 5.976-10.239 11.175-10.239 6.4 0 11.351 5.121 11.351 11.521S56.23 46.68 49.83 46.68"/><metadata><rdf:RDF xmlns:rdf="http://www.w3.org/1999/02/22-rdf-syntax-ns#" xmlns:rdfs="http://www.w3.org/2000/01/rdf-schema#" xmlns:dc="http://purl.org/dc/elements/1.1/"><rdf:Description about="https://iconscout.com/legal#licenses" dc:title="location,places" dc:description="location,places" dc:publisher="Iconscout" dc:date="2017-09-19" dc:format="image/svg+xml" dc:language="en"><dc:creator><rdf:Bag><rdf:li>Vincent Le Moign</rdf:li></rdf:Bag></dc:creator></rdf:Description></rdf:RDF></metadata></svg>